<svg width="32" height="32" viewBox="0 0 32 32" fill="none" xmlns="http://www.w3.org/2000/svg">
<path fill-rule="evenodd" clip-rule="evenodd" d="M32 32H0V0H32V32ZM20.9493 25.4827L20.384 23.5093L21.7493 24.7787L23.04 25.9733L25.3333 28V8.864C25.3333 7.648 24.352 6.66667 23.1467 6.66667H8.85333C7.648 6.66667 6.66667 7.648 6.66667 8.864V23.2853C6.66667 24.5013 7.648 25.4827 8.85333 25.4827H20.9493V25.4827ZM19.0293 20.5973C21.3867 20.5227 22.2933 18.976 22.2933 18.976C22.2933 15.5413 20.7573 12.7573 20.7573 12.7573C19.2213 11.6053 17.76 11.6373 17.76 11.6373L17.6107 11.808C19.424 12.3627 20.2667 13.1627 20.2667 13.1627C19.1573 12.5547 18.0693 12.256 17.056 12.1387C16.288 12.0533 15.552 12.0747 14.9013 12.16L14.72 12.1813C14.3467 12.2133 13.44 12.352 12.2987 12.8533L11.6693 13.1627C11.6693 13.1627 12.5547 12.32 14.4747 11.7653L14.368 11.6373C14.368 11.6373 12.9067 11.6053 11.3707 12.7573C11.3707 12.7573 9.83467 15.5413 9.83467 18.976C9.83467 18.976 10.7307 20.5227 13.088 20.5973L13.8027 19.712C12.448 19.3067 11.936 18.4533 11.936 18.4533L12.2347 18.6347L12.2773 18.6667L12.32 18.6907L12.332 18.696L12.3733 18.72C12.64 18.8693 12.9067 18.9867 13.152 19.0827C13.5893 19.2533 14.112 19.424 14.72 19.5413C15.52 19.6907 16.4587 19.744 17.4827 19.552C17.984 19.4667 18.496 19.3173 19.0293 19.0933C19.4027 18.9547 19.8187 18.752 20.256 18.464C20.256 18.464 19.7227 19.3387 18.3253 19.7333L19.0293 20.5973V20.5973ZM14.0693 15.616C13.4613 15.616 12.9813 16.1493 12.9813 16.8C12.9813 17.4507 13.472 17.984 14.0693 17.984C14.6773 17.984 15.1573 17.4507 15.1573 16.8C15.168 16.1493 14.6773 15.616 14.0693 15.616ZM17.9627 15.616C17.3547 15.616 16.8747 16.1493 16.8747 16.8C16.8747 17.4507 17.3653 17.984 17.9627 17.984C18.5707 17.984 19.0507 17.4507 19.0507 16.8C19.0507 16.1493 18.5707 15.616 17.9627 15.616Z" fill="#666666"/>
</svg>
