<svg width="24" height="24" viewBox="0 0 24 24" fill="none" xmlns="http://www.w3.org/2000/svg">
<path d="M12 2.77197C6.477 2.77197 2 6.30197 2 10.657C2 13.472 3.872 15.942 6.687 17.337C6.534 17.865 5.703 20.737 5.67 20.961C5.67 20.961 5.65 21.13 5.76 21.195C5.79688 21.2137 5.83723 21.2247 5.87854 21.2271C5.91984 21.2295 5.96119 21.2233 6 21.209C6.315 21.166 9.649 18.824 10.226 18.417C10.8137 18.5 11.4065 18.5414 12 18.541C17.523 18.541 22 15.011 22 10.657C22 6.30297 17.523 2.77197 12 2.77197ZM7.048 12.858C7.03933 13.0051 6.97477 13.1434 6.86751 13.2445C6.76025 13.3457 6.61841 13.402 6.471 13.402C6.32359 13.402 6.18175 13.3457 6.07449 13.2445C5.96723 13.1434 5.90267 13.0051 5.894 12.858V9.43097H4.994C4.9198 9.43097 4.84633 9.41636 4.77778 9.38796C4.70923 9.35957 4.64695 9.31795 4.59448 9.26549C4.54202 9.21302 4.5004 9.15074 4.47201 9.08219C4.44361 9.01364 4.429 8.94017 4.429 8.86597C4.429 8.79178 4.44361 8.71831 4.47201 8.64976C4.5004 8.58121 4.54202 8.51892 4.59448 8.46646C4.64695 8.41399 4.70923 8.37237 4.77778 8.34398C4.84633 8.31559 4.9198 8.30097 4.994 8.30097H7.948C8.09785 8.30097 8.24156 8.3605 8.34752 8.46646C8.45347 8.57242 8.513 8.71613 8.513 8.86597C8.513 9.01582 8.45347 9.15953 8.34752 9.26549C8.24156 9.37145 8.09785 9.43097 7.948 9.43097H7.048V12.858ZM11.897 13.322C11.7818 13.3745 11.6566 13.4015 11.53 13.401C11.4336 13.4132 11.3357 13.3954 11.2498 13.3499C11.1639 13.3045 11.0941 13.2336 11.05 13.147L10.764 12.399H9.005L8.719 13.147C8.67488 13.2336 8.6051 13.3045 8.51919 13.3499C8.43328 13.3954 8.33543 13.4132 8.239 13.401C8.11273 13.4014 7.98786 13.3744 7.873 13.322C7.714 13.248 7.561 13.047 7.736 12.503L9.116 8.86997C9.16389 8.70299 9.26483 8.55614 9.40356 8.4516C9.5423 8.34706 9.71129 8.29051 9.885 8.29051C10.0587 8.29051 10.2277 8.34706 10.3664 8.4516C10.5052 8.55614 10.6061 8.70299 10.654 8.86997L12.033 12.5C12.209 13.047 12.056 13.249 11.9 13.322H11.897ZM14.813 13.322H12.962C12.8186 13.3249 12.6798 13.2709 12.5762 13.1717C12.4725 13.0726 12.4124 12.9364 12.409 12.793V8.87797C12.409 8.72176 12.4711 8.57195 12.5815 8.46149C12.692 8.35103 12.8418 8.28897 12.998 8.28897C13.1542 8.28897 13.304 8.35103 13.4145 8.46149C13.5249 8.57195 13.587 8.72176 13.587 8.87797V12.267H14.813C14.9533 12.267 15.0879 12.3227 15.1871 12.4219C15.2863 12.5211 15.342 12.6557 15.342 12.796C15.342 12.9363 15.2863 13.0708 15.1871 13.17C15.0879 13.2692 14.9533 13.325 14.813 13.325V13.322ZM19.105 13.268C19.0054 13.344 18.8833 13.3848 18.758 13.384C18.6686 13.3844 18.5804 13.3639 18.5003 13.3242C18.4203 13.2844 18.3507 13.2265 18.297 13.155L16.944 11.362L16.744 11.562V12.821C16.744 12.974 16.6832 13.1208 16.575 13.229C16.4668 13.3372 16.32 13.398 16.167 13.398C16.014 13.398 15.8672 13.3372 15.759 13.229C15.6508 13.1208 15.59 12.974 15.59 12.821V8.87797C15.59 8.72494 15.6508 8.57818 15.759 8.46997C15.8672 8.36176 16.014 8.30097 16.167 8.30097C16.32 8.30097 16.4668 8.36176 16.575 8.46997C16.6832 8.57818 16.744 8.72494 16.744 8.87797V10.118L18.353 8.50797C18.3952 8.46657 18.4453 8.43394 18.5002 8.41197C18.5551 8.39 18.6139 8.37912 18.673 8.37997C18.817 8.38368 18.9545 8.44046 19.0591 8.53939C19.1638 8.63832 19.2282 8.77244 19.24 8.91597C19.2451 8.98015 19.2364 9.04468 19.2145 9.10523C19.1926 9.16577 19.158 9.22092 19.113 9.26697L17.8 10.582L19.22 12.463C19.3121 12.5851 19.352 12.7388 19.3308 12.8904C19.3096 13.0419 19.2291 13.1788 19.107 13.271L19.105 13.268ZM9.885 9.73997L10.461 11.377H9.308L9.885 9.73997Z" fill="white"/>
</svg>
