<svg width="32" height="32" viewBox="0 0 32 32" fill="none" xmlns="http://www.w3.org/2000/svg">
<path d="M32 29.5C32 30.8808 30.8808 32 29.5 32H2.5C1.11925 32 0 30.8808 0 29.5V2.5C0 1.11925 1.11925 0 2.5 0H29.5C30.8808 0 32 1.11925 32 2.5V29.5Z" fill="#666666"/>
<path d="M16 4.5C8.82025 4.5 3 9.08912 3 14.75C3 18.4099 5.43325 21.6212 9.09351 23.4347C8.89437 24.1213 7.81388 27.8527 7.77088 28.1457C7.77088 28.1457 7.745 28.366 7.88763 28.45C8.03025 28.534 8.198 28.4688 8.198 28.4688C8.607 28.4116 12.9409 25.3673 13.6909 24.8388C14.4404 24.9449 15.212 25 16 25C23.1797 25 29 20.4109 29 14.75C29 9.08912 23.1797 4.5 16 4.5Z" fill="#121212"/>
<path d="M8.8125 18.3281C8.39888 18.3281 8.0625 18.0069 8.0625 17.6119V13.1563H6.89225C6.48637 13.1563 6.15625 12.8268 6.15625 12.4219C6.15625 12.017 6.4865 11.6875 6.89225 11.6875H10.7327C11.1386 11.6875 11.4687 12.017 11.4687 12.4219C11.4687 12.8268 11.1385 13.1563 10.7327 13.1563H9.5625V17.6119C9.5625 18.0069 9.22612 18.3281 8.8125 18.3281ZM15.3889 18.3184C15.0763 18.3184 14.8371 18.1913 14.7649 17.9871L14.3935 17.0149L12.1065 17.0148L11.7349 17.9876C11.663 18.1915 11.4239 18.3184 11.1111 18.3184C10.9466 18.3185 10.784 18.2832 10.6344 18.2149C10.4276 18.1195 10.2289 17.8572 10.4566 17.1499L12.2506 12.4279C12.377 12.0688 12.7609 11.6988 13.2494 11.6876C13.7392 11.6986 14.1231 12.0688 14.2497 12.4286L16.0429 17.1485C16.2712 17.8575 16.0725 18.1199 15.8657 18.2151C15.7161 18.2832 15.5535 18.3185 15.3889 18.3184ZM13.9991 15.6864L13.25 13.5583L12.5009 15.6864H13.9991ZM17.25 18.2188C16.8536 18.2188 16.5312 17.9103 16.5312 17.5312V12.4375C16.5312 12.0239 16.8748 11.6875 17.2969 11.6875C17.7191 11.6875 18.0625 12.0239 18.0625 12.4375V16.8437H19.6563C20.0527 16.8437 20.3749 17.1523 20.3749 17.5312C20.3749 17.9103 20.0527 18.2188 19.6563 18.2188H17.25ZM21.4168 18.3184C21.0031 18.3184 20.6668 17.982 20.6668 17.5684V12.4375C20.6668 12.0239 21.0031 11.6875 21.4168 11.6875C21.8304 11.6875 22.1668 12.0239 22.1668 12.4375V14.0495L24.2592 11.957C24.3669 11.8494 24.5148 11.7901 24.6752 11.7901C24.8625 11.7901 25.0505 11.8709 25.1913 12.0116C25.3228 12.1429 25.4011 12.3118 25.4119 12.4871C25.4228 12.664 25.3639 12.8261 25.2464 12.9438L23.5372 14.6527L25.3833 17.0984C25.4429 17.1768 25.4864 17.2664 25.5111 17.3617C25.5359 17.4571 25.5413 17.5564 25.5273 17.654C25.514 17.7516 25.4813 17.8456 25.4315 17.9305C25.3815 18.0153 25.3152 18.0895 25.2364 18.1487C25.1067 18.2472 24.9481 18.3004 24.7852 18.3C24.6691 18.3005 24.5543 18.2739 24.4503 18.2221C24.3463 18.1703 24.2557 18.0949 24.1861 18.0019L22.4272 15.6713L22.1669 15.9316V17.568C22.1668 17.7669 22.0876 17.9576 21.9471 18.0983C21.8064 18.2389 21.6157 18.3181 21.4168 18.3184Z" fill="#666666"/>
</svg>
