<svg width="24" height="24" viewBox="0 0 24 24" fill="none" xmlns="http://www.w3.org/2000/svg">
<path d="M8.09731 3.15399C8.01236 3.19116 7.8743 3.29204 7.79466 3.377C7.66191 3.52036 1.91678 13.8319 1.58758 14.5221C1.50262 14.6973 1.43359 14.915 1.43359 15.0053C1.43359 15.2496 1.67253 15.6743 1.89554 15.823L2.092 15.9558L4.27961 15.9717L6.47253 15.9876L6.48846 18.1221C6.50439 20.0124 6.51501 20.2779 6.59466 20.4212C6.71147 20.6336 7.02474 20.9097 7.21059 20.9575C7.29023 20.9841 7.89554 21 8.55395 21H9.75395L10.0088 20.8407C10.1681 20.7398 10.3062 20.6018 10.3752 20.469C10.4814 20.2619 10.4867 20.1823 10.4867 18.1327V16.0089L9.79643 15.9823C9.19643 15.9611 9.07961 15.9398 8.9097 15.8336C8.61236 15.6478 8.46899 15.3823 8.46899 15C8.46899 14.6814 8.47961 14.6602 9.98758 11.8407C10.8212 10.2796 11.5699 8.87788 11.6442 8.7239L11.7876 8.44779L10.5451 5.92567C9.37165 3.54691 9.28669 3.39823 9.07961 3.26018C8.81413 3.08496 8.35218 3.03186 8.09731 3.15399Z" fill="white"/>
<path d="M15.0371 3.19115C14.915 3.25487 14.7716 3.36637 14.7132 3.44602C14.6601 3.52035 14.0654 4.67788 13.3858 6.01062L12.1539 8.43717L12.2442 8.61239C12.292 8.70796 13.0513 10.115 13.9327 11.7345C15.5256 14.6708 15.5309 14.6814 15.5309 15C15.5309 15.3823 15.3876 15.6478 15.0902 15.8336C14.9203 15.9398 14.8035 15.9611 14.2035 15.9823L13.5132 16.0088V18.1327C13.5132 20.1823 13.5185 20.2619 13.6247 20.469C13.6938 20.6018 13.8318 20.7398 13.9911 20.8407L14.246 21H15.446C16.1044 21 16.7097 20.9841 16.7893 20.9575C16.9752 20.9097 17.2884 20.6336 17.4053 20.4212C17.4849 20.2779 17.4955 20.0124 17.5114 18.1168L17.5274 15.9823H19.6513C21.9982 15.9823 21.9875 15.9823 22.2849 15.6478C22.5079 15.3929 22.5929 15.0796 22.5185 14.7929C22.4707 14.5965 16.5132 3.76991 16.269 3.4354C16.0247 3.10089 15.4566 2.98407 15.0371 3.19115Z" fill="white"/>
</svg>
