<svg width="24" height="24" viewBox="0 0 24 24" fill="none" xmlns="http://www.w3.org/2000/svg">
<path fill-rule="evenodd" clip-rule="evenodd" d="M19 24H5C2.239 24 0 21.761 0 19V5C0 2.239 2.239 0 5 0H19C21.762 0 24 2.239 24 5V19C24 21.761 21.762 24 19 24ZM16.256 18.852C16.471 19.005 16.747 19.043 16.994 18.949C17.24 18.856 17.422 18.645 17.477 18.389C18.056 15.667 19.462 8.775 19.989 6.299C20.028 6.112 19.962 5.918 19.816 5.793C19.669 5.669 19.465 5.633 19.284 5.7C16.489 6.734 7.88 9.964 4.361 11.267C4.138 11.349 3.993 11.564 4 11.8C4.008 12.035 4.167 12.24 4.395 12.309C5.973 12.78 8.045 13.437 8.045 13.437C8.045 13.437 9.012 16.361 9.517 17.847C9.58 18.034 9.727 18.181 9.919 18.231C10.112 18.281 10.316 18.229 10.46 18.093C11.271 17.328 12.524 16.145 12.524 16.145C12.524 16.145 14.905 17.891 16.256 18.852V18.852ZM8.916 13.068L10.035 16.76L10.284 14.422C10.284 14.422 14.608 10.522 17.074 8.298C17.146 8.233 17.156 8.124 17.096 8.047C17.036 7.97 16.927 7.952 16.845 8.004C13.988 9.829 8.916 13.068 8.916 13.068V13.068Z" fill="#666666"/>
</svg>
