<svg width="24" height="24" viewBox="0 0 24 24" fill="none" xmlns="http://www.w3.org/2000/svg">
<path d="M11.9999 1.49792C6.20929 1.49792 1.49817 6.20905 1.49817 11.9998C1.49817 17.7907 6.20929 22.5021 11.9999 22.5021C17.7908 22.5021 22.5019 17.7907 22.5019 11.9998C22.5017 6.20905 17.7906 1.49792 11.9999 1.49792V1.49792ZM17.5892 9.2608C17.3108 9.67779 16.9645 10.0452 16.5647 10.3479C16.5664 10.4089 16.5675 10.4698 16.5675 10.5307C16.5675 13.5934 14.2371 16.7612 10.3371 16.7612C9.14697 16.7617 7.98171 16.4205 6.97992 15.7779C6.94421 15.7551 6.9173 15.7209 6.9036 15.6808C6.88991 15.6407 6.89024 15.5971 6.90454 15.5572C6.91846 15.5171 6.94571 15.483 6.98174 15.4606C7.01777 15.4381 7.06041 15.4287 7.10254 15.4339C7.26698 15.4528 7.42992 15.4622 7.58704 15.4622C8.35204 15.4622 9.08105 15.2565 9.72098 14.8635C9.33558 14.7705 8.98061 14.5798 8.69024 14.3098C8.39988 14.0398 8.18391 13.6997 8.06311 13.3221C8.05322 13.291 8.05154 13.258 8.05825 13.2262C8.06495 13.1943 8.07981 13.1647 8.10136 13.1404C8.12291 13.1159 8.1505 13.0976 8.18136 13.0872C8.21222 13.0767 8.24528 13.0746 8.27723 13.0809C8.31248 13.0877 8.34792 13.0935 8.38317 13.0984C7.73198 12.6834 7.30954 11.9539 7.30954 11.1461V11.1193C7.30956 11.0867 7.31809 11.0546 7.3343 11.0263C7.3505 10.998 7.37382 10.9744 7.40194 10.9578C7.43006 10.9413 7.46202 10.9323 7.49464 10.9319C7.52727 10.9315 7.55945 10.9396 7.58798 10.9554C7.66955 11.0006 7.75411 11.0398 7.84092 11.0728C7.50772 10.661 7.3262 10.1472 7.32679 9.61743C7.32679 9.20905 7.43498 8.80705 7.63954 8.45511C7.65477 8.42888 7.67613 8.40673 7.7018 8.39056C7.72746 8.3744 7.75667 8.3647 7.7869 8.3623C7.81714 8.35991 7.84751 8.36488 7.8754 8.3768C7.90329 8.38872 7.92788 8.40723 7.94704 8.43074C8.94436 9.65361 10.3941 10.4229 11.9535 10.5647C11.9425 10.4718 11.937 10.3783 11.937 10.2847C11.937 9.0103 12.9741 7.97343 14.2487 7.97343C14.85 7.97343 15.4319 8.21061 15.861 8.62724C16.2805 8.53386 16.6824 8.37444 17.0519 8.15493C17.0611 8.126 17.0772 8.09974 17.0988 8.07841C17.1204 8.05707 17.1469 8.04131 17.1759 8.03247C17.2049 8.02362 17.2357 8.02196 17.2655 8.02764C17.2954 8.03331 17.3234 8.04614 17.3471 8.06502C17.3709 8.08391 17.3897 8.10829 17.402 8.13606C17.4143 8.16383 17.4196 8.19417 17.4176 8.22446C17.4155 8.25475 17.4062 8.2841 17.3903 8.30997C17.3744 8.33584 17.3525 8.35747 17.3264 8.37299C17.2345 8.66085 17.0867 8.92772 16.8914 9.15824C17.0502 9.11024 17.206 9.05238 17.3577 8.98499C17.3948 8.96858 17.4363 8.96468 17.4758 8.97387C17.5154 8.98306 17.5509 9.00484 17.577 9.03595C17.6031 9.06705 17.6184 9.10579 17.6206 9.14634C17.6228 9.18688 17.6118 9.22705 17.5892 9.2608V9.2608Z" fill="white"/>
</svg>
