<svg width="96" height="20" viewBox="0 0 96 20" fill="none" xmlns="http://www.w3.org/2000/svg">
<g clip-path="url(#clip0_407_5)">
<path d="M23.3189 10.0072H22.0851V19.5527H18.9755V0.346321H22.0851V9.81241H23.3478L33.7085 0.346321H33.9827L25.6638 7.95094L35.1443 19.5527H31.14L23.3189 10.0072Z" fill="#FFF200" stroke="#FFF200" stroke-width="0.29" stroke-miterlimit="10"/>
<path d="M47.2222 19.3579V19.5527H36.3997V0.346321H39.5093V19.3579H47.2222Z" fill="#FFF200" stroke="#FFF200" stroke-width="0.29" stroke-miterlimit="10"/>
<path d="M63.0447 0.346321V13.1602C63.0428 14.9468 62.3322 16.6598 61.0688 17.9231C59.8055 19.1865 58.0925 19.8971 56.3059 19.899C52.5902 19.899 48.0952 18.456 48.0952 12.215V0.346321H51.2049V12.215C51.2049 15.8225 52.6984 19.7042 56.3059 19.7042C58.0409 19.7023 59.7043 19.0122 60.9311 17.7854C62.1579 16.5586 62.848 14.8952 62.8499 13.1602V0.346321H63.0447Z" fill="#FFF200" stroke="#FFF200" stroke-width="0.29" stroke-miterlimit="10"/>
<path d="M80.4979 14.2569C80.4979 17.6696 77.7706 19.531 73.0087 19.531H65.6061V9.09812V0.548341V0.346321H72.5325C78.6364 0.346321 79.5527 3.02309 79.5527 4.67533C79.5527 6.11833 78.8312 8.44877 74.5022 9.00433C78.3334 9.36508 80.4979 11.241 80.4979 14.2569ZM77.3882 14.2569C77.3882 12.316 76.4575 9.07648 72.6263 9.06926H68.723V19.3579H72.6263C76.4575 19.3579 77.3882 16.2121 77.3882 14.2569ZM68.7302 0.548341V8.91775H72.2006C73.3239 8.90682 74.399 8.45965 75.1987 7.6707C75.9984 6.88176 76.4602 5.81283 76.4863 4.68975C76.4655 3.57154 76.0016 2.50733 75.1967 1.73083C74.3918 0.954324 73.3116 0.529029 72.1934 0.548341H68.7302Z" fill="#FFF200" stroke="#FFF200" stroke-width="0.29" stroke-miterlimit="10"/>
<path d="M95.7359 14.7258C95.7359 19.43 90.2958 19.733 89.2064 19.733C86.3564 19.733 81.8398 18.1818 81.8398 14.026H82.0274C82.0274 18.0519 86.4286 19.5527 89.2064 19.5527C90.267 19.5527 94.6321 19.1919 94.6321 15.9452C94.6321 9.33622 82.6768 14.0115 82.6768 5.07936C82.6768 2.66955 84.6753 0.180374 89.1703 0.180374C93.3406 0.180374 95.5267 2.79221 95.5267 5.36796H95.3391C95.3391 2.87879 93.2179 0.360749 89.1703 0.360749C85.469 0.360749 83.8168 1.90476 83.8168 3.88889C83.7807 10.9452 95.7359 5.53391 95.7359 14.7258Z" fill="#FFF200" stroke="#FFF200" stroke-width="0.28" stroke-miterlimit="10"/>
<path d="M15.303 18.759L8.32607 10.0577L15.3102 1.1039C15.3848 1.0007 15.4308 0.879591 15.4435 0.752868C15.4562 0.626145 15.4351 0.498325 15.3823 0.382395C15.3271 0.268425 15.2411 0.172199 15.1339 0.104616C15.0268 0.0370324 14.9029 0.000792416 14.7763 0V0L0.678158 0.036075C0.498286 0.036075 0.32578 0.107529 0.198591 0.234718C0.0714017 0.361907 -5.24701e-05 0.534413 -5.24701e-05 0.714286V19.2136C-0.00136483 19.3037 0.0158946 19.3931 0.0506508 19.4763C0.085407 19.5595 0.136915 19.6346 0.201968 19.697C0.263525 19.7611 0.337474 19.8121 0.41933 19.8469C0.501185 19.8816 0.589242 19.8993 0.678158 19.899V19.899L14.7763 19.8629C14.9041 19.8627 15.0293 19.8263 15.1374 19.758C15.2455 19.6896 15.332 19.5922 15.3871 19.4768C15.4422 19.3614 15.4635 19.2327 15.4486 19.1057C15.4337 18.9788 15.3832 18.8586 15.303 18.759V18.759Z" fill="#FFF200"/>
<path d="M6.81101 3.83839H4.43005V6.21934H6.81101V3.83839Z" fill="#221F20"/>
</g>
<defs>
<clipPath id="clip0_407_5">
<rect width="95.8369" height="20" fill="white"/>
</clipPath>
</defs>
</svg>
